<svg width="249" height="249" viewBox="0 0 249 249" fill="none" xmlns="http://www.w3.org/2000/svg">
<circle cx="124.5" cy="124.5" r="124.5" fill="white"/>
<path d="M125.284 123.909L122.853 127.009L121.569 125.372C121.545 125.342 121.515 125.318 121.481 125.301C121.447 125.285 121.41 125.276 121.372 125.276C121.334 125.276 121.296 125.285 121.262 125.301C121.228 125.318 121.198 125.342 121.175 125.372L118.056 129.347C118.027 129.384 118.009 129.428 118.005 129.474C118 129.521 118.008 129.568 118.029 129.61C118.049 129.652 118.081 129.688 118.121 129.712C118.16 129.737 118.206 129.75 118.253 129.75H129.75C129.959 129.75 130.075 129.509 129.947 129.347L125.681 123.909C125.658 123.879 125.627 123.855 125.593 123.839C125.559 123.822 125.521 123.813 125.483 123.813C125.445 123.813 125.407 123.822 125.373 123.839C125.338 123.855 125.308 123.879 125.284 123.909ZM119.25 121.812C119.25 122.144 119.382 122.462 119.616 122.696C119.851 122.931 120.168 123.062 120.5 123.062C120.832 123.062 121.149 122.931 121.384 122.696C121.618 122.462 121.75 122.144 121.75 121.812C121.75 121.481 121.618 121.163 121.384 120.929C121.149 120.694 120.832 120.562 120.5 120.562C120.168 120.562 119.851 120.694 119.616 120.929C119.382 121.163 119.25 121.481 119.25 121.812ZM134.706 117.019L127.981 110.294C127.794 110.106 127.541 110 127.275 110H114C113.447 110 113 110.447 113 111V137C113 137.553 113.447 138 114 138H134C134.553 138 135 137.553 135 137V117.728C135 117.462 134.894 117.206 134.706 117.019ZM132.694 118.188H126.812V112.306L132.694 118.188ZM132.75 135.75H115.25V112.25H124.688V119C124.688 119.348 124.826 119.682 125.072 119.928C125.318 120.174 125.652 120.312 126 120.312H132.75V135.75Z" fill="black"/>
</svg>
