<svg width="30" height="30" viewBox="0 0 30 30" fill="none" xmlns="http://www.w3.org/2000/svg">
<path d="M11.25 3.75C12.1771 3.75 13.0834 4.02492 13.8542 4.53999C14.6251 5.05506 15.2259 5.78714 15.5807 6.64367C15.9355 7.5002 16.0283 8.4427 15.8474 9.35199C15.6666 10.2613 15.2201 11.0965 14.5646 11.7521C13.909 12.4076 13.0738 12.8541 12.1645 13.0349C11.2552 13.2158 10.3127 13.123 9.45617 12.7682C8.59964 12.4134 7.86756 11.8126 7.35249 11.0417C6.83742 10.2709 6.5625 9.3646 6.5625 8.4375C6.5625 7.1943 7.05636 6.00201 7.93544 5.12294C8.81451 4.24386 10.0068 3.75 11.25 3.75ZM11.25 1.875C9.95206 1.875 8.68327 2.25988 7.60407 2.98098C6.52487 3.70208 5.68374 4.727 5.18704 5.92614C4.69034 7.12528 4.56038 8.44478 4.8136 9.71778C5.06681 10.9908 5.69183 12.1601 6.60961 13.0779C7.52739 13.9957 8.69672 14.6207 9.96972 14.8739C11.2427 15.1271 12.5622 14.9972 13.7614 14.5005C14.9605 14.0038 15.9854 13.1626 16.7065 12.0834C17.4276 11.0042 17.8125 9.73544 17.8125 8.4375C17.8125 6.69702 17.1211 5.02782 15.8904 3.79711C14.6597 2.5664 12.9905 1.875 11.25 1.875ZM20.625 28.125H18.75V23.4375C18.75 22.1943 18.2561 21.002 17.3771 20.1229C16.498 19.2439 15.3057 18.75 14.0625 18.75H8.4375C7.1943 18.75 6.00201 19.2439 5.12294 20.1229C4.24386 21.002 3.75 22.1943 3.75 23.4375V28.125H1.875V23.4375C1.875 21.697 2.5664 20.0278 3.79711 18.7971C5.02782 17.5664 6.69702 16.875 8.4375 16.875H14.0625C15.803 16.875 17.4722 17.5664 18.7029 18.7971C19.9336 20.0278 20.625 21.697 20.625 23.4375V28.125ZM20.625 3.75H30V5.625H20.625V3.75ZM20.625 8.4375H30V10.3125H20.625V8.4375ZM20.625 13.125H27.1875V15H20.625V13.125Z" fill="black"/>
</svg>
